# xmcd
#
# Track frame offsets:
#	150
#	10578
#	33076
#	44628
#	57625
#	77988
#	96453
#	119120
#	136025
#	154898
#	174903
#	187888
#	203280
#	217745
#	231760
#
# Disc length: 3322
#
# Revision: 1
# Processed by: cddbd v1.5.1PL0 Copyright (c) Steve Scherf et al.
# Submitted via: EasyCDDAExtractor 4.5.0.2
# Normalized: r0:DSETVAR1
#
DISCID=c10cf80f
DTITLE=Various Artist - Blues Story #17
DYEAR=1998
DGENRE=Blues
TTITLE0=Etta James - Tell Mama
TTITLE1=Koko Tailor - I'd Rather Go Blind
TTITLE2=Nina Simone - I Put A Shell On You
TTITLE3=Alberta Hunter - Nobody Knows The Way I Feel Dis Mornin
TTITLE4=Katie Webster - I'm Bad
TTITLE5=Saffire - Bitch With A Bad Attitude
TTITLE6=Zora Young - Queen Bee
TTITLE7=Joanna Connor - Big Girl Blues
TTITLE8=Deborah Coleman - Roll With Me
TTITLE9=Zakiya Hooker - Stones In My Passway
TTITLE10=Ruth Brown - Mama He Treats Your Daugther Mean
TTITLE11=Bessie Smith - Down Hearted Blues
TTITLE12=Billie Holiday - Fine And Mellow
TTITLE13=Lavern Baker - Tweedlee Dee
TTITLE14=Marva Wright - What's Wrong
EXTD=
EXTT0=
EXTT1=
EXTT2=
EXTT3=
EXTT4=
EXTT5=
EXTT6=
EXTT7=
EXTT8=
EXTT9=
EXTT10=
EXTT11=
EXTT12=
EXTT13=
EXTT14=
PLAYORDER=
